<?xml version="1.0" encoding="UTF-8"?>
<svg xmlns="http://www.w3.org/2000/svg" id="Layer_1" data-name="Layer 1" viewBox="0 0 41.507 41.507">
  <defs>
    <style>
      .cls-1 {
        fill: #fff;
        stroke-width: 0px;
      }
    </style>
  </defs>
  <path class="cls-1" d="M20.752,0C9.29.001-.001,9.294,0,20.755c.001,11.462,9.294,20.753,20.755,20.752,11.462-.001,20.753-9.294,20.752-20.755v-.002C41.507,9.29,32.217,0,20.757,0c-.002,0-.004,0-.006,0ZM31.529,30.169c-1.4,1.568-3.026,2.484-4.842,2.715-2.996.372-5.112-.976-6.812-2.069-1.464-.931-2.544-1.454-3.885-1.454-.249,0-.498.015-.745.048-.894.108-1.756.548-2.559,1.292-.588.57-1.097,1.218-1.51,1.926l-2.918-1.454c.488-.865,1.066-1.677,1.724-2.421,1.43-1.609,3.062-2.54,4.842-2.767,2.928-.372,4.989.952,6.814,2.121,1.73,1.108,2.918,1.637,4.619,1.419.877-.114,1.745-.559,2.559-1.304.595-.567,1.109-1.212,1.529-1.918l2.905,1.445c-.487.865-1.064,1.676-1.721,2.421ZM31.529,21.487c-1.4,1.568-3.026,2.481-4.842,2.717-2.996.372-5.112-.981-6.812-2.071-1.464-.942-2.544-1.46-3.885-1.46-.249.002-.498.018-.745.05-.894.114-1.751.559-2.559,1.291-.588.571-1.096,1.219-1.51,1.926l-2.918-1.449c.487-.87,1.065-1.687,1.724-2.436,1.43-1.607,3.062-2.535,4.842-2.76,2.928-.372,4.989.946,6.814,2.114,1.73,1.117,2.918,1.637,4.619,1.421.877-.11,1.745-.559,2.559-1.304.595-.564,1.109-1.208,1.529-1.913l2.913,1.449c-.487.87-1.067,1.686-1.728,2.432v-.007ZM31.529,12.801c-1.4,1.566-3.026,2.484-4.842,2.715-2.996.372-5.112-.976-6.812-2.071-1.464-.931-2.544-1.454-3.885-1.454-.249-.001-.498.016-.745.05-.894.114-1.751.548-2.559,1.291-.588.571-1.096,1.219-1.51,1.926l-2.92-1.454c.49-.867,1.068-1.682,1.724-2.43,1.434-1.607,3.062-2.533,4.842-2.766,2.928-.372,4.995.952,6.814,2.119,1.73,1.117,2.918,1.637,4.619,1.421.877-.114,1.745-.559,2.559-1.304.594-.567,1.108-1.211,1.529-1.916l2.913,1.453c-.489.868-1.067,1.682-1.726,2.428v-.007Z"></path>
</svg>
