<svg width="48" height="26" viewBox="0 0 48 26" fill="none" xmlns="http://www.w3.org/2000/svg">
<path fill-rule="evenodd" clip-rule="evenodd" d="M33.2015 17.4139L41.0967 25.3091C41.3561 25.5685 41.708 25.7143 42.0749 25.7143L46.4624 25.7143C47.6949 25.7143 48.3121 24.2242 47.4407 23.3527L35.5631 11.4751C34.6916 10.6036 33.2015 11.2209 33.2015 12.4533V17.4139ZM31.8181 25.7143C32.5821 25.7143 33.2015 25.0949 33.2015 24.3309V17.4139L16.1956 0.40796C15.3241 -0.463531 13.834 0.153698 13.834 1.38617V17.4139L2.3616 5.94155C1.49011 5.07006 0 5.68728 0 6.91976V24.3309C0 25.0949 0.619368 25.7143 1.3834 25.7143L12.4506 25.7143C13.2146 25.7143 13.834 25.0949 13.834 24.3309V17.4139L21.7292 25.3091C21.9886 25.5685 22.3405 25.7143 22.7074 25.7143H31.8181Z" fill="black"/>
</svg>
