<?xml version="1.0" encoding="UTF-8"?>
<svg xmlns="http://www.w3.org/2000/svg" width="64" height="64" fill="none">
  <path fill="#fff" d="M49.6 43.757a10.263 10.263 0 0 1-8.903 5.153h-5.946V28.86l-8.582 14.902a10.264 10.264 0 0 1-8.903 5.152H11.36V19.325h11.878v20l11.512-19.99v-.01h11.874v20.082l12.474-21.673a2.737 2.737 0 0 0-.05-2.828C53.295 5.821 43.095-.17 31.505.004 13.832.279-.09 14.503 0 32.174.092 49.767 14.387 64 32 64c17.614 0 32-14.325 32-31.996 0-2.846-.376-5.606-1.077-8.237-.211-.798-1.275-.944-1.688-.234l-11.64 20.22.005.004Z"></path>
</svg>
