<?xml version="1.0" encoding="UTF-8"?>
<svg xmlns="http://www.w3.org/2000/svg" width="260" height="260" viewBox="0 0 260 260" fill="none">
  <g clip-path="url(#clip0_1680_14480)">
    <path d="M0 20C0 8.9543 8.95431 0 20 0H240C251.046 0 260 8.95431 260 20V240C260 251.046 251.046 260 240 260H20C8.9543 260 0 251.046 0 240V20Z" fill="url(#paint0_linear_1680_14480)"></path>
    <path d="M140.047 22C138.386 22 136.897 23.0274 136.308 24.5811L122.934 59.8325C122.536 60.8794 123.31 62 124.43 62H138.111L123.009 99.4944C122.399 101.008 120.931 102 119.299 102H92.3693C91.2357 102 90.4617 100.854 90.8852 99.8022L106.111 62H62.8C58.3196 62 56.0794 62 54.3681 62.8719C52.8628 63.6389 51.6389 64.8628 50.8719 66.3681C50 68.0794 50 70.3196 50 74.8V209.2C50 213.68 50 215.921 50.8719 217.632C51.6389 219.137 52.8628 220.361 54.3681 221.128C56.0794 222 58.3196 222 62.8 222H197.2C201.68 222 203.921 222 205.632 221.128C207.137 220.361 208.361 219.137 209.128 217.632C210 215.921 210 213.68 210 209.2V74.8C210 70.3196 210 68.0794 209.128 66.3681C208.361 64.8628 207.137 63.6389 205.632 62.8719C203.921 62 201.68 62 197.2 62H154.111L168.464 24.1675C168.862 23.1206 168.088 22 166.968 22H140.047Z" fill="white"></path>
  </g>
  <defs>
    <linearGradient id="paint0_linear_1680_14480" x1="14.2665" y1="257.516" x2="126.92" y2="64.1078" gradientUnits="userSpaceOnUse">
      <stop stop-color="#3B62FD"></stop>
      <stop offset="0.541799" stop-color="#9D2A6D"></stop>
      <stop offset="0.715529" stop-color="#CA406D"></stop>
      <stop offset="1" stop-color="#F57C56"></stop>
    </linearGradient>
    <clipPath id="clip0_1680_14480">
      <rect width="260" height="260" fill="white"></rect>
    </clipPath>
  </defs>
</svg>
